<svg width="65" height="64" viewBox="0 0 65 64" fill="none" xmlns="http://www.w3.org/2000/svg">
<path d="M63.3651 35.1929C63.0116 33.9138 62.6788 32.7047 62.6788 31.6014C62.6788 30.4981 63.0116 29.289 63.3651 28.0098C63.9277 25.9736 64.5081 23.8673 63.8135 21.8201C63.0928 19.6904 61.2965 18.2986 59.5593 16.9548C58.5181 16.1483 57.5346 15.3871 56.8964 14.549C56.2472 13.6944 55.7878 12.554 55.3036 11.3463C54.5045 9.36225 53.6792 7.30954 51.8306 6.02075C50.0123 4.7512 47.7428 4.62891 45.5517 4.51213C44.1845 4.43931 42.8916 4.36923 41.8091 4.03261C40.7968 3.71797 39.7487 3.06533 38.6401 2.37423C36.8562 1.26131 34.8329 0 32.4932 0C30.1536 0 28.1303 1.26131 26.3464 2.3756C25.2378 3.06671 24.1924 3.72072 23.1787 4.03399C22.0949 4.37061 20.802 4.44068 19.4348 4.5135C17.2423 4.63166 14.9756 4.75257 13.1558 6.02212C11.3072 7.31091 10.482 9.36225 9.68284 11.3463C9.19594 12.554 8.73654 13.6958 8.08733 14.5504C7.44912 15.3912 6.46568 16.1524 5.42446 16.9603C3.68865 18.3054 1.89507 19.6945 1.17433 21.8214C0.479733 23.87 1.06017 25.975 1.62135 28.0126C1.97484 29.2917 2.3077 30.4995 2.3077 31.6028C2.3077 32.7061 1.97484 33.9151 1.62135 35.1943C1.06017 37.2305 0.479733 39.3368 1.17433 41.3868C1.89507 43.5137 3.69002 44.9056 5.42584 46.2493C6.46705 47.0545 7.4505 47.817 8.08733 48.6551C8.73791 49.5097 9.19731 50.6501 9.68284 51.8592C10.482 53.8433 11.3086 55.896 13.1586 57.1875C14.9756 58.4543 17.2437 58.5752 19.4348 58.692C20.802 58.7648 22.0949 58.8349 23.1773 59.1715C24.1897 59.4862 25.2364 60.1388 26.3436 60.8285C28.129 61.9401 30.1522 63.2028 32.4932 63.2028C34.8343 63.2028 36.8589 61.9401 38.6456 60.8272C39.7529 60.1374 40.7982 59.4848 41.8119 59.1701C42.8944 58.8335 44.1873 58.7635 45.5545 58.6906C47.7469 58.5738 50.0137 58.4529 51.8306 57.1861C53.6834 55.8946 54.5086 53.8391 55.3078 51.8537C55.7933 50.6474 56.2513 49.507 56.8978 48.6551C57.536 47.817 58.5194 47.0545 59.5607 46.2493C61.2978 44.9042 63.0928 43.5137 63.8149 41.3854C64.5095 39.3355 63.9277 37.2305 63.3651 35.1929ZM61.2083 40.5047C60.753 41.8485 59.3542 42.9312 57.8742 44.0771C56.7394 44.9564 55.5648 45.866 54.7065 46.9926C53.8359 48.1413 53.2857 49.507 52.7534 50.8301C52.0753 52.5174 51.4343 54.1098 50.2556 54.9314C49.081 55.7503 47.297 55.8451 45.4071 55.9454C43.9313 56.0237 42.4032 56.1048 40.992 56.5445C39.6426 56.9663 38.3937 57.7426 37.1875 58.4955C35.5713 59.504 34.046 60.4548 32.4931 60.4548C30.9402 60.4548 29.4162 59.504 27.8001 58.4955C26.5952 57.744 25.3476 56.9663 23.9969 56.5445C22.5857 56.1062 21.0576 56.0237 19.5818 55.9454C17.6919 55.8451 15.9066 55.749 14.7333 54.9314C13.5559 54.1098 12.9136 52.5174 12.2355 50.8315C11.7032 49.5084 11.1516 48.1413 10.2796 46.9926C9.42271 45.866 8.24808 44.9564 7.11196 44.0757C5.63336 42.9298 4.2359 41.8485 3.78063 40.5047C3.35562 39.253 3.80264 37.6345 4.27442 35.9225C4.65954 34.5224 5.05842 33.077 5.05842 31.6C5.05842 30.123 4.65954 28.6789 4.27442 27.2789C3.80126 25.5669 3.35562 23.9497 3.78063 22.698C4.2359 21.3543 5.63198 20.273 7.11059 19.1271C8.24671 18.2464 9.42271 17.3354 10.2782 16.2074C11.153 15.0587 11.7032 13.6903 12.2369 12.3671C12.9136 10.6813 13.5546 9.09021 14.7306 8.27132C15.9052 7.45106 17.6919 7.35625 19.5831 7.25595C21.0576 7.17626 22.5857 7.0952 23.9956 6.65553C25.3476 6.23509 26.5965 5.45605 27.8042 4.70311C29.4176 3.69874 30.9416 2.74795 32.4931 2.74795C34.0446 2.74795 35.5699 3.69874 37.1847 4.70586C38.3924 5.46017 39.6399 6.23784 40.992 6.65827C42.4018 7.09657 43.9285 7.17764 45.4044 7.25733C47.2956 7.35763 49.081 7.45518 50.2556 8.27407C51.433 9.0957 52.0739 10.6868 52.7506 12.3699C53.2843 13.6944 53.8331 15.0615 54.7079 16.2101C55.5648 17.3368 56.7394 18.2464 57.8742 19.1257C59.3542 20.273 60.753 21.3557 61.2083 22.7022C61.6333 23.9511 61.1849 25.5683 60.7131 27.2802C60.3266 28.6803 59.9277 30.1257 59.9277 31.6028C59.9277 33.0798 60.3252 34.5252 60.7131 35.9239C61.1864 37.6359 61.6333 39.253 61.2083 40.5047Z" fill="white"/>
<path d="M32.4933 10.9909C21.117 10.9909 11.8616 20.2364 11.8616 31.6005C11.8616 42.9647 21.117 52.2102 32.4933 52.2102C43.8696 52.2102 53.125 42.9647 53.125 31.6005C53.125 20.2364 43.8696 10.9909 32.4933 10.9909ZM32.4933 49.4622C22.6341 49.4622 14.6125 41.4492 14.6125 31.6005C14.6125 21.7519 22.6341 13.7389 32.4933 13.7389C37.5783 13.7389 42.1627 15.8809 45.4225 19.2966L32.3145 37.723L25.213 30.6291C24.6752 30.0919 23.806 30.0919 23.2682 30.6291C22.7304 31.1664 22.7304 32.0347 23.2682 32.5719L31.5208 40.8158C31.7794 41.0755 32.1302 41.2184 32.4933 41.2184C32.5304 41.2184 32.5703 41.217 32.6088 41.2129C33.0118 41.1799 33.3804 40.9697 33.6143 40.6399L47.2271 21.5032C49.2077 24.3776 50.3741 27.8537 50.3741 31.6005C50.3741 41.4492 42.3525 49.4622 32.4933 49.4622Z" fill="white"/>
</svg>
